<?xml version="1.0" standalone="no"?>
<!DOCTYPE svg PUBLIC "-//W3C//DTD SVG 20010904//EN"
 "http://www.w3.org/TR/2001/REC-SVG-20010904/DTD/svg10.dtd">
<svg version="1.0" xmlns="http://www.w3.org/2000/svg"
 width="3200.000000pt" height="1000.000000pt" viewBox="0 0 3200.000000 1000.000000"
 preserveAspectRatio="xMidYMid meet">
<metadata>
Created by potrace 1.16, written by Peter Selinger 2001-2019
</metadata>
<g transform="translate(0.000000,1000.000000) scale(0.100000,-0.100000)"
fill="#000000" stroke="none">
<path d="M0 5000 l0 -5000 16000 0 16000 0 0 5000 0 5000 -16000 0 -16000 0 0
-5000z m3445 4345 c278 -19 539 -69 801 -155 163 -53 213 -75 361 -156 95 -52
195 -114 224 -137 28 -23 87 -69 129 -102 93 -72 379 -355 423 -418 18 -25 74
-101 125 -169 51 -67 139 -193 195 -278 56 -86 109 -155 117 -155 8 0 71 83
140 187 239 357 501 662 692 805 42 32 119 90 170 129 151 116 408 248 598
309 114 36 417 100 595 124 125 18 447 33 545 27 680 -47 1128 -183 1592 -484
205 -133 471 -376 586 -535 135 -185 202 -301 254 -442 105 -277 129 -391 135
-631 7 -251 -7 -397 -72 -729 -33 -171 -136 -464 -252 -715 -56 -122 -235
-455 -295 -550 -22 -36 -63 -101 -89 -145 -55 -91 -99 -157 -146 -218 -30 -39
-63 -83 -181 -248 -43 -61 -92 -118 -190 -222 -20 -20 -42 -37 -49 -37 -8 0
-12 3 -10 8 12 23 136 230 184 307 64 103 199 371 266 525 82 190 181 523 227
769 29 150 32 472 6 626 -35 207 -125 429 -246 606 -123 181 -172 242 -269
338 -203 199 -416 338 -714 465 -393 168 -950 215 -1480 125 -305 -52 -537
-155 -817 -362 -109 -80 -356 -328 -433 -433 -107 -146 -194 -271 -227 -324
-120 -194 -142 -218 -176 -189 -8 7 -62 85 -121 173 -95 146 -136 203 -255
361 -90 120 -246 276 -367 367 -208 157 -384 259 -556 322 -459 169 -1168 174
-1670 11 -141 -46 -385 -164 -505 -245 -336 -225 -608 -538 -734 -844 -83
-200 -117 -371 -118 -599 -1 -282 16 -491 57 -674 65 -300 71 -320 189 -658
42 -123 220 -498 280 -592 27 -41 63 -102 111 -183 43 -73 122 -192 193 -291
26 -36 67 -95 91 -130 25 -35 99 -131 165 -213 67 -81 140 -173 164 -205 23
-31 85 -99 136 -151 51 -52 112 -120 136 -150 67 -84 440 -459 675 -678 116
-107 289 -270 385 -362 96 -91 240 -226 320 -300 613 -570 1015 -990 998
-1041 -5 -14 -90 50 -264 197 -71 60 -165 138 -209 174 -44 35 -116 94 -160
131 -44 38 -161 135 -260 218 -254 211 -750 629 -916 771 -48 41 -194 174
-325 295 -130 121 -332 307 -448 414 -505 464 -594 551 -841 826 -49 55 -133
145 -185 200 -205 214 -296 322 -584 695 -81 106 -375 540 -405 599 -11 21
-45 78 -76 127 -97 154 -279 535 -346 725 -73 207 -76 218 -128 446 -72 322
-89 707 -41 938 70 342 282 747 509 974 478 477 1044 742 1750 821 298 33 355
35 636 15z m14978 -1290 c223 -47 341 -210 391 -540 36 -229 39 -347 45 -1638
6 -1202 5 -1290 -11 -1298 -27 -15 -414 -11 -425 4 -5 7 -8 217 -7 482 1 259
0 478 -3 488 -4 15 -22 17 -192 17 -135 0 -192 -4 -204 -13 -16 -11 -18 -49
-17 -493 l0 -482 -22 -6 c-45 -12 -403 -7 -416 6 -15 15 -17 2339 -2 2605 18
332 63 540 146 673 51 82 143 152 242 184 112 37 330 42 475 11z m12593 5
c117 -30 190 -71 252 -143 29 -34 61 -80 72 -101 53 -105 93 -294 110 -511 8
-117 8 -131 -7 -142 -12 -9 -70 -13 -204 -13 -164 0 -189 2 -207 18 -17 14
-21 39 -32 171 -13 162 -25 227 -61 309 -26 59 -49 72 -125 72 -74 0 -108 -20
-140 -81 -43 -86 -55 -179 -56 -439 0 -255 9 -323 60 -424 43 -88 173 -205
363 -328 75 -49 215 -175 262 -237 71 -93 125 -230 149 -376 16 -103 15 -622
-2 -760 -15 -121 -64 -266 -114 -334 -105 -143 -274 -210 -526 -211 -202 0
-342 49 -439 156 -76 82 -104 144 -146 315 -38 153 -74 581 -52 617 6 9 60 12
212 12 112 0 210 -3 219 -6 13 -5 16 -25 16 -113 0 -247 40 -459 95 -511 50
-47 161 -45 213 3 55 51 69 116 82 377 14 305 -11 439 -111 584 -46 67 -99
114 -312 275 -261 198 -355 329 -402 563 -13 59 -19 152 -22 321 -7 337 14
499 85 649 83 177 223 273 432 298 127 15 253 11 336 -10z m-16907 -29 c13 -8
12 -17 -2 -63 -14 -41 -687 -2742 -713 -2858 -3 -14 -13 -40 -21 -58 -9 -18
-12 -36 -8 -40 3 -4 156 -10 338 -13 183 -3 333 -6 334 -7 1 -1 2 -94 2 -206
l1 -204 -22 -6 c-35 -9 -1181 -7 -1196 3 -10 6 -10 14 -3 32 6 13 58 218 116
454 57 237 111 453 119 480 8 28 17 66 21 85 4 19 15 67 26 105 10 39 118 471
240 960 121 490 227 909 235 933 8 24 12 48 9 53 -4 5 -142 9 -330 9 -178 0
-330 3 -339 6 -14 5 -16 30 -16 169 0 121 3 165 13 168 22 10 1182 7 1196 -2z
m961 -1 c19 -10 19 -51 20 -1725 0 -1684 0 -1715 -19 -1725 -24 -13 -418 -14
-425 -1 -4 5 -6 782 -6 1727 0 1372 2 1719 12 1726 19 12 396 10 418 -2z m964
-1 c18 -9 25 -19 24 -38 -1 -14 18 -123 41 -241 23 -118 50 -258 60 -310 10
-52 37 -192 60 -310 22 -118 46 -251 53 -294 15 -89 33 -113 66 -83 14 13 22
42 31 113 10 85 102 575 181 965 17 81 30 156 30 167 0 37 30 42 232 42 214 0
241 -6 218 -49 -6 -12 -47 -163 -90 -334 -84 -336 -245 -969 -341 -1345 l-59
-232 0 -749 0 -749 -22 -6 c-45 -12 -403 -7 -416 6 -9 9 -12 192 -12 763 0
713 -1 754 -20 825 -11 41 -27 106 -35 144 -8 37 -17 72 -20 76 -3 4 -11 36
-19 71 -8 35 -44 181 -81 324 -37 143 -73 285 -80 315 -51 219 -217 861 -230
888 -14 31 -14 33 8 42 33 13 391 12 421 -1z m5163 5 l23 -6 0 -1719 c0 -1703
0 -1718 -20 -1729 -12 -7 -93 -9 -222 -8 l-203 3 -3 1724 c-2 1373 0 1726 10
1733 15 9 382 11 415 2z m1096 -3 c17 -7 26 -20 30 -43 3 -18 20 -85 38 -148
17 -63 48 -180 69 -260 21 -80 48 -180 59 -222 37 -137 57 -215 166 -628 165
-629 163 -624 185 -590 6 9 10 382 10 951 l0 937 23 6 c31 8 388 6 410 -2 16
-7 17 -94 17 -1726 0 -946 -3 -1722 -6 -1725 -10 -11 -373 -13 -391 -2 -10 5
-24 36 -34 73 -9 34 -33 117 -52 183 -20 66 -57 190 -82 275 -70 237 -111 375
-145 490 -18 58 -38 125 -45 150 -7 25 -29 101 -50 170 -21 69 -44 150 -52
180 -33 126 -78 221 -85 179 -1 -8 -3 -390 -3 -851 0 -460 -4 -840 -8 -845
-14 -14 -416 -16 -433 -2 -12 10 -14 256 -14 1729 0 1365 3 1719 13 1723 22 9
355 7 380 -2z m2022 -1 c14 -5 24 -14 20 -19 -3 -5 6 -121 20 -258 15 -136 33
-313 40 -393 8 -80 46 -458 84 -840 38 -382 72 -749 76 -815 4 -66 9 -123 12
-128 3 -4 11 -3 19 4 8 6 22 9 33 6 16 -4 19 4 25 71 3 41 6 106 6 143 0 38 7
135 15 216 9 82 24 235 35 341 11 105 29 279 40 385 21 201 46 451 80 797 35
349 52 485 64 492 15 10 428 10 443 0 13 -8 11 -33 -37 -374 -38 -280 -59
-433 -80 -593 -11 -88 -23 -167 -25 -175 -2 -8 -11 -69 -19 -135 -9 -66 -25
-187 -36 -270 -12 -82 -30 -215 -41 -295 -10 -80 -28 -208 -39 -285 -10 -77
-26 -192 -34 -255 -9 -63 -22 -162 -31 -220 -8 -58 -27 -190 -41 -295 -14
-104 -34 -251 -44 -325 -11 -74 -21 -153 -22 -175 -5 -62 -17 -65 -286 -65
-142 0 -241 4 -253 10 -13 8 -19 21 -19 48 0 20 -9 98 -19 172 -19 130 -50
357 -91 660 -11 80 -25 177 -31 215 -5 39 -19 138 -30 220 -21 158 -45 330
-79 580 -12 83 -28 204 -36 270 -8 66 -19 143 -24 170 -5 28 -14 88 -20 135
-5 47 -16 135 -25 195 -8 61 -22 157 -30 215 -8 58 -26 191 -40 295 -14 105
-27 208 -30 229 -4 26 -1 42 7 48 19 11 412 10 443 -2z m2012 4 l22 -6 1
-1719 c0 -1693 0 -1718 -19 -1729 -23 -12 -400 -14 -418 -2 -19 12 -20 3442
-1 3453 15 10 381 12 415 3z m1826 -3 c17 -6 19 -21 17 -186 0 -128 -4 -182
-13 -187 -7 -4 -94 -8 -195 -8 -107 0 -191 -4 -203 -10 -19 -11 -19 -38 -19
-1534 l0 -1524 -22 -6 c-30 -8 -392 -8 -412 0 -15 6 -16 149 -16 1524 0 835
-3 1525 -6 1534 -5 14 -32 16 -199 16 -106 0 -200 3 -209 6 -14 5 -16 32 -16
189 0 137 3 185 13 188 19 8 1260 6 1280 -2z m1519 0 c23 -9 23 -11 23 -165 0
-128 -3 -158 -15 -166 -8 -6 -124 -10 -266 -10 -184 0 -255 -3 -267 -12 -15
-12 -17 -59 -17 -557 -1 -433 2 -546 12 -553 7 -4 105 -8 218 -8 113 0 215 -3
228 -6 22 -6 22 -9 22 -164 0 -135 -2 -159 -16 -164 -9 -3 -111 -6 -227 -6
-117 0 -218 -4 -224 -8 -19 -12 -19 -1192 -1 -1204 7 -4 126 -8 263 -9 138 0
258 -4 268 -7 15 -7 18 -29 22 -204 5 -188 5 -198 -14 -208 -13 -6 -184 -10
-499 -10 -393 0 -482 2 -491 14 -8 10 -11 466 -11 1724 0 1613 1 1712 18 1721
21 13 941 15 974 2z m-15682 -5246 c54 -19 85 -47 113 -100 20 -37 22 -59 25
-267 5 -318 -12 -369 -143 -422 -147 -59 -318 -15 -378 97 -21 40 -22 52 -22
302 0 244 1 262 21 300 26 49 85 92 144 105 61 12 185 5 240 -15z m-695 1 c73
-31 31 -68 -85 -76 l-75 -5 -3 -353 -2 -353 -26 -11 c-17 -8 -34 -9 -52 -2
l-27 9 -5 355 -5 355 -88 6 c-64 4 -92 11 -107 24 -16 15 -18 21 -8 33 23 27
53 31 251 31 151 1 206 -2 232 -13z m2366 -2 c107 -32 149 -76 149 -157 0 -48
-9 -57 -59 -57 -34 0 -51 17 -51 51 0 51 -85 95 -169 87 -58 -6 -98 -25 -125
-61 -19 -26 -21 -44 -24 -240 -4 -293 9 -324 139 -334 115 -9 175 29 186 118
3 24 10 50 16 57 13 17 72 15 87 -3 19 -22 4 -136 -23 -177 -45 -68 -187 -111
-303 -91 -102 18 -154 49 -184 108 -25 49 -25 53 -25 305 0 242 1 257 21 295
12 22 31 49 43 59 57 52 215 71 322 40z m1380 6 c18 -10 19 -25 19 -404 0
-433 4 -406 -60 -406 -51 0 -53 13 -46 359 3 174 5 346 6 383 0 55 3 67 18 71
30 8 43 7 63 -3z m1526 -12 c32 -11 68 -28 80 -36 33 -21 60 -70 67 -123 7
-46 6 -47 -25 -58 -42 -15 -80 4 -92 44 -15 48 -22 59 -55 78 -52 30 -129 33
-182 5 -70 -36 -73 -48 -71 -307 1 -152 6 -233 14 -250 25 -53 127 -76 219
-51 48 14 83 72 92 151 l6 56 -38 7 c-20 3 -50 6 -66 6 -55 0 -88 57 -47 80
30 15 223 13 246 -4 17 -12 18 -23 12 -121 -8 -132 -21 -175 -61 -213 -62 -60
-205 -86 -316 -58 -91 24 -121 44 -150 101 -25 49 -25 54 -25 290 0 165 4 253
13 282 15 51 86 117 140 131 68 18 176 14 239 -10z m2202 1 l34 -20 -22 -22
c-19 -20 -35 -22 -160 -27 -77 -3 -141 -7 -144 -10 -3 -3 -7 -60 -9 -127 l-4
-121 35 -6 c20 -3 69 -6 109 -6 120 0 168 -40 95 -79 -12 -6 -62 -11 -112 -11
-49 0 -96 -3 -105 -6 -13 -5 -16 -27 -16 -134 l0 -127 31 -7 c17 -3 77 -6 133
-6 104 0 148 -12 154 -42 2 -8 -4 -23 -13 -32 -25 -24 -370 -24 -397 1 -17 15
-18 40 -18 388 0 382 1 394 40 408 8 3 87 6 175 6 145 1 163 -1 194 -20z
m1418 6 c59 -18 98 -45 118 -86 20 -37 30 -191 20 -294 -7 -77 -9 -81 -50
-120 -23 -22 -50 -46 -59 -53 -15 -12 -15 -15 2 -40 31 -44 83 -163 80 -180
-2 -9 -15 -21 -30 -26 -48 -17 -70 3 -123 113 -40 83 -53 103 -74 107 -14 3
-32 8 -39 10 -8 2 -24 1 -38 -2 -24 -6 -24 -8 -24 -115 l0 -108 -34 -6 c-19
-4 -43 -2 -55 4 -21 12 -21 16 -21 396 l0 384 22 15 c31 22 234 22 305 1z
m868 1 c19 -8 35 -21 35 -29 0 -28 -33 -42 -114 -47 l-81 -5 -3 -353 -2 -353
-26 -11 c-17 -8 -34 -9 -52 -2 l-27 9 -5 355 -5 355 -87 5 c-65 4 -91 10 -107
24 -17 15 -19 22 -9 34 23 27 53 31 251 31 151 1 206 -2 232 -13z m591 -1 c33
-10 63 -28 93 -59 38 -38 42 -46 32 -65 -17 -30 -80 -29 -118 3 -63 52 -101
58 -170 26 -50 -22 -68 -54 -59 -104 9 -46 41 -72 188 -148 138 -71 182 -109
199 -170 16 -59 3 -152 -26 -195 -65 -97 -188 -127 -320 -79 -71 26 -108 54
-132 99 -19 38 -3 57 49 57 31 0 45 -6 66 -29 33 -36 73 -53 129 -53 55 0 79
15 103 62 52 102 9 158 -208 270 -53 27 -97 59 -122 88 -38 42 -40 48 -40 110
0 70 23 127 63 152 78 49 182 62 273 35z m2198 5 l26 -10 -2 -392 -3 -393 -28
-9 c-56 -20 -73 1 -191 237 -145 291 -145 291 -148 -5 l-3 -223 -27 -9 c-18
-7 -35 -6 -53 2 l-25 12 0 383 c0 285 3 386 12 395 18 18 63 15 86 -5 21 -19
77 -125 166 -315 50 -108 57 -118 82 -118 l27 0 -6 151 c-8 207 0 288 27 299
28 12 31 12 60 0z m761 -14 c60 -22 110 -67 127 -115 9 -26 13 -109 13 -286 0
-282 -2 -289 -73 -339 -67 -46 -121 -57 -292 -57 -144 1 -156 2 -172 21 -15
19 -17 53 -12 388 2 202 7 375 10 384 7 25 24 27 194 24 119 -2 167 -6 205
-20z m1104 -2 c23 -25 40 -69 96 -249 25 -82 52 -168 59 -190 14 -45 48 -60
64 -28 5 10 40 108 77 218 75 223 87 250 114 265 25 13 82 13 115 0 l26 -10 0
-388 c0 -288 -3 -391 -12 -400 -13 -13 -56 -16 -82 -6 -14 5 -16 35 -16 234 0
126 -3 236 -6 245 -12 31 -43 -15 -73 -109 -50 -155 -113 -330 -124 -344 -14
-17 -78 -11 -88 8 -15 27 -56 142 -89 250 -35 113 -68 182 -84 177 -7 -2 -12
-80 -14 -223 -2 -192 -4 -221 -19 -231 -25 -19 -60 -16 -83 7 -20 20 -20 29
-14 393 5 366 6 372 27 391 27 23 101 17 126 -10z m1779 6 c1 0 1 -177 0 -392
l-3 -393 -28 -9 c-56 -20 -73 2 -183 223 -96 194 -127 239 -144 211 -4 -7 -5
-99 -2 -205 5 -187 4 -193 -17 -214 -24 -24 -59 -27 -84 -8 -16 11 -17 44 -15
402 l3 390 41 3 c29 2 45 -2 56 -15 20 -22 117 -210 164 -317 41 -92 70 -136
90 -136 12 0 14 37 14 230 0 230 0 231 22 239 13 4 36 4 53 0 16 -5 31 -9 33
-9z m723 1 c57 -18 102 -53 129 -101 24 -44 24 -51 28 -290 3 -240 3 -246 -20
-289 -28 -54 -55 -75 -133 -102 -52 -18 -81 -21 -210 -20 -82 0 -157 4 -167 7
-17 5 -18 29 -18 400 l0 395 23 9 c29 13 322 6 368 -9z m760 4 c54 -19 119
-80 119 -112 0 -51 -66 -48 -140 6 -50 36 -86 39 -147 12 -47 -22 -63 -45 -63
-92 0 -44 46 -84 162 -144 160 -83 192 -106 216 -163 24 -55 27 -85 16 -152
-6 -35 -18 -55 -58 -95 -80 -80 -170 -95 -291 -51 -70 25 -108 54 -131 98 -20
38 -18 47 12 59 34 12 90 -5 105 -33 22 -42 138 -65 189 -38 50 27 72 135 37
181 -23 30 -103 84 -182 124 -44 22 -103 62 -132 91 l-53 50 0 73 c0 107 35
156 135 187 56 18 154 17 206 -1z m-16443 -7 c9 -9 12 -91 12 -306 0 -252 2
-299 16 -329 24 -49 54 -65 132 -70 81 -5 126 14 157 67 19 33 20 57 25 340
l5 305 50 0 50 0 0 -325 c0 -319 0 -326 -23 -368 -55 -104 -230 -153 -366
-102 -72 28 -102 52 -131 111 -25 48 -25 48 -25 362 0 173 3 317 7 320 11 12
78 8 91 -5z m1697 -160 l0 -167 53 -7 c62 -7 238 -1 248 9 4 4 3 22 -2 40 -5
17 -7 91 -4 162 l5 130 50 0 50 0 3 -390 c2 -358 1 -391 -15 -402 -22 -17 -54
-16 -77 0 -16 12 -18 31 -17 179 2 144 0 166 -14 172 -21 8 -238 8 -259 0 -14
-5 -16 -30 -16 -175 0 -156 -1 -169 -19 -179 -26 -14 -54 -13 -75 3 -16 12
-17 41 -16 390 0 207 3 384 7 392 4 12 17 15 52 13 l46 -3 0 -167z m1249 166
c8 -3 63 -103 122 -222 58 -120 111 -223 117 -230 7 -9 13 -9 23 -1 11 9 14
56 14 223 0 116 4 217 9 224 5 9 24 12 52 10 l44 -3 0 -395 0 -395 -28 -9
c-22 -8 -32 -6 -54 10 -28 21 -51 63 -158 284 -38 80 -77 153 -86 164 -35 38
-39 13 -39 -224 l0 -229 -34 -6 c-19 -4 -43 -2 -55 4 -21 12 -21 16 -21 391 0
331 2 381 16 394 16 16 50 21 78 10z m2163 -6 c10 -18 14 -231 4 -283 l-8 -43
36 -6 c46 -7 185 -8 231 0 l35 6 0 166 0 167 44 3 c24 2 49 -2 55 -8 8 -8 11
-126 12 -387 2 -355 1 -376 -17 -394 -21 -21 -50 -24 -80 -9 -18 10 -19 23
-19 179 0 145 -2 170 -16 175 -20 8 -238 8 -258 0 -14 -5 -15 -25 -9 -164 6
-152 5 -158 -15 -178 -24 -24 -52 -28 -83 -12 -18 10 -19 25 -19 390 0 208 3
385 6 394 8 20 89 22 101 4z m1710 4 c15 -10 43 -88 86 -242 20 -69 59 -201
87 -295 28 -93 52 -188 53 -210 2 -38 0 -40 -30 -43 -45 -4 -70 12 -78 50 -10
52 -39 132 -50 140 -18 13 -200 9 -217 -4 -9 -7 -21 -38 -28 -68 -19 -85 -38
-118 -70 -125 -36 -8 -70 9 -70 35 0 11 34 136 76 277 42 142 87 299 101 348
26 95 39 125 57 137 14 10 68 10 83 0z m3537 -14 c17 -28 35 -82 131 -408 41
-140 80 -271 86 -291 18 -56 10 -74 -35 -77 -46 -4 -72 16 -79 61 -9 55 -30
122 -41 129 -19 13 -201 9 -219 -4 -9 -7 -23 -44 -32 -83 -19 -85 -36 -105
-86 -105 -53 0 -61 19 -39 89 10 31 46 153 79 271 134 470 122 440 181 440 30
0 43 -5 54 -22z m3790 16 c14 -5 16 -50 16 -395 l0 -389 -25 -12 c-18 -8 -35
-9 -53 -2 l-27 9 -3 385 c-1 212 0 391 3 397 5 13 61 18 89 7z"/>
<path d="M18135 7712 c-116 -55 -134 -217 -135 -1223 0 -508 2 -567 16 -573
30 -12 382 -7 390 5 4 7 6 280 5 608 -1 577 -11 886 -31 991 -14 76 -52 161
-80 181 -39 28 -117 33 -165 11z"/>
<path d="M13794 2709 c-24 -6 -53 -22 -70 -40 l-29 -30 -3 -237 c-2 -224 -1
-239 18 -270 25 -40 73 -62 137 -62 84 0 120 16 145 63 21 38 23 59 26 232 6
280 -9 324 -117 345 -30 5 -56 10 -60 9 -3 -1 -24 -5 -47 -10z"/>
<path d="M21978 2704 c-5 -4 -8 -92 -8 -195 l0 -189 26 -6 c27 -7 151 2 178
12 26 10 46 99 45 198 -1 116 -7 136 -48 160 -35 20 -179 36 -193 20z"/>
<path d="M26323 2703 c-10 -4 -13 -77 -13 -318 l0 -314 45 -7 c52 -7 208 18
231 37 39 32 46 68 49 250 4 280 -10 319 -121 345 -57 13 -166 18 -191 7z"/>
<path d="M29937 2703 c-4 -3 -7 -147 -7 -319 l0 -314 27 -6 c15 -4 67 -2 116
5 174 23 182 38 182 316 0 266 -11 290 -145 315 -60 11 -163 13 -173 3z"/>
<path d="M21297 2502 c-8 -9 -25 -51 -38 -92 -12 -41 -29 -85 -36 -97 -14 -21
-13 -22 40 -28 31 -4 74 -4 97 0 33 6 40 10 34 23 -14 36 -54 163 -54 176 0 8
-6 19 -13 25 -11 8 -18 7 -30 -7z"/>
<path d="M24807 2478 c-8 -18 -20 -58 -27 -88 -7 -30 -19 -63 -28 -73 -8 -9
-13 -19 -10 -22 12 -12 135 -16 162 -6 26 11 27 13 13 34 -8 12 -19 46 -26 75
-14 65 -37 112 -55 112 -8 0 -20 -15 -29 -32z"/>
</g>
</svg>
